{"title":"Tomorrowland.2015.TR.LD.CAM.XviD-JBL","uid":11955883,"size":1971620328,"categoryP":"video","categoryS":"movies","magnet":"?xt=urn:btih:f85dac17c88c6ee44eaf028f0100b17c852d3964&amp;dn=Tomorrowland.2015.TR.LD.CAM.XviD-JBL&amp;tr=udp%3A%2F%2Ftracker.openbittorrent.com%3A80&amp;tr=udp%3A%2F%2Fopen.demonii.com%3A1337&amp;tr=udp%3A%2F%2Ftracker.coppersurfer.tk%3A6969&amp;tr=udp%3A%2F%2Fexodus.desync.com%3A6969","seeders":2,"leechers":0,"uploader":"JBLTeam","files":2,"time":1432414070,"description":"\n----Team-JBL-----\n\nORiGiN SOURCE: ELEKTRI4KA Thx.\n\nViDEO SOURCE: RU CAM-MURD3R Thx.\n\nTURKiSH LiNE MiC AUDiO SOURCE: cadance Thx.\n\n\n\n\nGeneral\nFormat                                   : AVI\nFormat/Info                              : Audio Video Interleave\nFile size                                : 1.84 GiB\nDuration                                 : 2h 1mn\nOverall bit rate                         : 2 166 Kbps\nWriting application                      : VirtualDubMod 1.5.10.2 (build 2540/release)\nWriting library                          : VirtualDubMod build 2540/release\n\nVideo\nID                                       : 0\nFormat                                   : MPEG-4 Visual\nFormat profile                           : Advanced Simple@L5\nFormat settings, BVOP                    : 2\nFormat settings, QPel                    : No\nFormat settings, GMC                     : No warppoints\nFormat settings, Matrix                  : Default (MPEG)\nCodec ID                                 : XVID\nCodec ID/Hint                            : XviD\nDuration                                 : 2h 1mn\nBit rate                                 : 2 014 Kbps\nWidth                                    : 720 pixels\nHeight                                   : 272 pixels\nDisplay aspect ratio                     : 2.647\nFrame rate                               : 59.940 fps\nColor space                              : YUV\nChroma subsampling                       : 4:2:0\nBit depth                                : 8 bits\nScan type                                : Progressive\nCompression mode                         : Lossy\nBits/(Pixel*Frame)                       : 0.172\nStream size                              : 1.71 GiB (93%)\nWriting library                          : XviD 73\n\nAudio\nID                                       : 1\nFormat                                   : MPEG Audio\nCodec ID                                 : 55\nCodec ID/Hint                            : MP3\nDuration                                 : 2h 1mn\nBit rate                                 : 128 Kbps\nChannel(s)                               : 2 channels - Stereo\nSampling rate                            : 44.1 KHz\nCompression mode                         : Lossy\nStream size                              : 111 MiB (6%)\nAlignment                                : Split accross interleaves\nInterleave, duration                     : 17 ms (1.00 video frame)\nInterleave, preload duration             : 500 ms\n\n\n\nScreens:\n &lt;a href=&quot;\nhttp://s20.postimg.org/6hhp27rp9/MURD3_Rvlcsnap_2015_05_22_11h11m10s115.png&quot; rel=&quot;nofollow&quot; target=&quot;_NEW&quot;&gt;\nhttp://s20.postimg.org/6hhp27rp9/MURD3_Rvlcsnap_2015_05_22_11h11m10s115.png&lt;/a&gt; &lt;a href=&quot;\nhttp://s20.postimg.org/4lqbdbdh9/MURD3_Rvlcsnap_2015_05_22_11h10m05s233.png&quot; rel=&quot;nofollow&quot; target=&quot;_NEW&quot;&gt;\nhttp://s20.postimg.org/4lqbdbdh9/MURD3_Rvlcsnap_2015_05_22_11h10m05s233.png&lt;/a&gt; &lt;a href=&quot;\nhttp://s20.postimg.org/i41t3cf0d/MURD3_Rvlcsnap_2015_05_22_11h10m44s113.png&quot; rel=&quot;nofollow&quot; target=&quot;_NEW&quot;&gt;\nhttp://s20.postimg.org/i41t3cf0d/MURD3_Rvlcsnap_2015_05_22_11h10m44s113.png&lt;/a&gt; &lt;a href=&quot;\nhttp://s20.postimg.org/j7lxfaznh/MURD3_Rvlcsnap_2015_05_22_11h10m16s87.png&quot; rel=&quot;nofollow&quot; target=&quot;_NEW&quot;&gt;\nhttp://s20.postimg.org/j7lxfaznh/MURD3_Rvlcsnap_2015_05_22_11h10m16s87.png&lt;/a&gt;\n\nPlease Seed.\nThx","torrent":{"xt":"urn:btih:f85dac17c88c6ee44eaf028f0100b17c852d3964","amp;dn":"Tomorrowland.2015.TR.LD.CAM.XviD-JBL","amp;tr":["udp%3A%2F%2Ftracker.openbittorrent.com%3A80","udp%3A%2F%2Fopen.demonii.com%3A1337","udp%3A%2F%2Ftracker.coppersurfer.tk%3A6969","udp%3A%2F%2Fexodus.desync.com%3A6969"],"infoHash":"f85dac17c88c6ee44eaf028f0100b17c852d3964","infoHashBuffer":{"type":"Buffer","data":[248,93,172,23,200,140,110,228,78,175,2,143,1,0,177,124,133,45,57,100]},"announce":[],"urlList":[]}}